<svg xmlns="http://www.w3.org/2000/svg" width="20" height="30.999" viewBox="0 0 20 30.999"><g transform="translate(-928.909 -184)"><path d="M13.416,30.882,2.2,19.742a3.918,3.918,0,0,1,0-5.57,4,4,0,0,1,.455-.389,3.981,3.981,0,0,1,.394-.455L14.265,2.189a3.986,3.986,0,0,1,5.608,0,3.918,3.918,0,0,1,0,5.57l-9.263,9.2,8.414,8.355a3.921,3.921,0,0,1,0,5.57,3.986,3.986,0,0,1-5.608,0Z" transform="translate(949.944 216.035) rotate(180)" fill="#fff"/><path d="M16.219,29.635a1.57,1.57,0,0,0,1.113-.455,1.521,1.521,0,0,0,0-2.165L8.919,18.661a2.4,2.4,0,0,1,0-3.406l9.264-9.2a1.518,1.518,0,0,0,0-2.163,1.586,1.586,0,0,0-2.226,0L4.738,15.03a1.585,1.585,0,0,0-.156.181,2.4,2.4,0,0,1-.512.509,1.6,1.6,0,0,0-.182.156,1.518,1.518,0,0,0,0,2.163l11.219,11.14a1.568,1.568,0,0,0,1.112.456m0,2.4a3.966,3.966,0,0,1-2.8-1.153L2.2,19.742a3.918,3.918,0,0,1,0-5.57,3.993,3.993,0,0,1,.455-.389,3.979,3.979,0,0,1,.394-.455L14.265,2.189a3.986,3.986,0,0,1,5.608,0,3.918,3.918,0,0,1,0,5.57l-9.263,9.2,8.414,8.355a3.921,3.921,0,0,1,0,5.57A3.97,3.97,0,0,1,16.219,32.035Z" transform="translate(949.944 216.035) rotate(180)" fill="#e4006e"/></g></svg>